<svg preserveAspectRatio="none" width="100%" height="100%" overflow="visible" style="display: block;" viewBox="0 0 9.99965 10" fill="none" xmlns="http://www.w3.org/2000/svg">
<g id="Group 1000027258">
<path id="Vector" d="M5.0006 2.43273C3.58273 2.43273 2.43485 3.58187 2.43485 4.99851C2.43485 6.41641 3.58398 7.5643 5.0006 7.5643C6.41846 7.5643 7.56634 6.41516 7.56634 4.99851C7.56634 3.58062 6.41721 2.43273 5.0006 2.43273ZM5.0006 6.6639C4.08021 6.6639 3.33524 5.9185 3.33524 4.99851C3.33524 4.07853 4.08063 3.33313 5.0006 3.33313C5.92056 3.33313 6.66595 4.07853 6.66595 4.99851C6.66637 5.9185 5.92098 6.6639 5.0006 6.6639Z" fill="var(--fill-0, #454545)"/>
<path id="Vector_2" d="M7.06151 0.0314106C6.14154 -0.0115054 3.86288 -0.00942206 2.94207 0.0314106C2.13294 0.0693266 1.41921 0.26474 0.843815 0.840146C-0.117818 1.8018 0.00509452 3.09761 0.00509452 4.99799C0.00509452 6.94296 -0.103235 8.20877 0.843815 9.15583C1.8092 10.1208 3.12373 9.99457 5.00158 9.99457C6.92818 9.99457 7.59316 9.99582 8.27439 9.73207C9.2006 9.3725 9.89975 8.54459 9.96808 7.05754C10.0114 6.13714 10.0089 3.85884 9.96808 2.93803C9.88558 1.18264 8.94353 0.118076 7.06151 0.0314106ZM8.51771 8.5196C7.88732 9.15 7.01276 9.09375 4.9895 9.09375C2.90624 9.09375 2.07086 9.12458 1.46129 8.51335C0.759235 7.81461 0.886314 6.69254 0.886314 4.99132C0.886314 2.68928 0.650072 1.03139 2.96041 0.913062C3.49122 0.894312 3.64747 0.888062 4.98367 0.888062L5.00242 0.900562C7.22276 0.900562 8.96478 0.668066 9.06936 2.97803C9.09311 3.5051 9.09852 3.66343 9.09852 4.99757C9.09811 7.0567 9.13727 7.89711 8.51771 8.5196Z" fill="var(--fill-0, #454545)"/>
<path id="Vector_3" d="M7.66975 2.93092C8.00088 2.93092 8.26931 2.66248 8.26931 2.33134C8.26931 2.00021 8.00088 1.73177 7.66975 1.73177C7.33862 1.73177 7.07019 2.00021 7.07019 2.33134C7.07019 2.66248 7.33862 2.93092 7.66975 2.93092Z" fill="var(--fill-0, #454545)"/>
</g>
</svg>
