<svg preserveAspectRatio="none" width="100%" height="100%" overflow="visible" style="display: block;" viewBox="0 0 91.4286 91.4286" fill="none" xmlns="http://www.w3.org/2000/svg">
<g id="Frame 2147238548" filter="url(#filter0_i_1127_31)">
<rect width="91.4286" height="91.4286" rx="45.7143" fill="var(--fill-0, #454545)"/>
<rect width="91.4286" height="91.4286" rx="45.7143" fill="url(#paint0_linear_1127_31)"/>
<rect x="0.714286" y="0.714286" width="90" height="90" rx="45" stroke="url(#paint1_linear_1127_31)" stroke-width="1.42857"/>
<g id="Vector" filter="url(#filter1_d_1127_31)">
<path d="M49.9432 39.8137C53.2192 42.3191 54.8571 43.5718 54.8571 45.7143C54.8571 47.8568 53.2192 49.1095 49.9432 51.6148C49.0389 52.3065 48.1419 52.9576 47.3177 53.5002C46.5946 53.9763 45.7757 54.4687 44.9278 54.952C41.6595 56.8153 40.0254 57.7469 38.5597 56.7154C37.0941 55.684 36.9609 53.5247 36.6945 49.2061C36.6192 47.9849 36.5714 46.7876 36.5714 45.7143C36.5714 44.641 36.6192 43.4437 36.6945 42.2224C36.9609 37.9039 37.0941 35.7446 38.5597 34.7131C40.0254 33.6817 41.6595 34.6133 44.9278 36.4765C45.7757 36.9599 46.5946 37.4523 47.3177 37.9283C48.1419 38.4709 49.0388 39.1221 49.9432 39.8137Z" fill="url(#paint2_linear_1127_31)"/>
<path d="M49.9432 39.8137C53.2192 42.3191 54.8571 43.5718 54.8571 45.7143C54.8571 47.8568 53.2192 49.1095 49.9432 51.6148C49.0389 52.3065 48.1419 52.9576 47.3177 53.5002C46.5946 53.9763 45.7757 54.4687 44.9278 54.952C41.6595 56.8153 40.0254 57.7469 38.5597 56.7154C37.0941 55.684 36.9609 53.5247 36.6945 49.2061C36.6192 47.9849 36.5714 46.7876 36.5714 45.7143C36.5714 44.641 36.6192 43.4437 36.6945 42.2224C36.9609 37.9039 37.0941 35.7446 38.5597 34.7131C40.0254 33.6817 41.6595 34.6133 44.9278 36.4765C45.7757 36.9599 46.5946 37.4523 47.3177 37.9283C48.1419 38.4709 49.0388 39.1221 49.9432 39.8137Z" stroke="var(--stroke-0, #686B6F)" stroke-width="1.42857"/>
</g>
</g>
<defs>
<filter id="filter0_i_1127_31" x="0" y="0" width="91.4286" height="97.1429" filterUnits="userSpaceOnUse" color-interpolation-filters="sRGB">
<feFlood flood-opacity="0" result="BackgroundImageFix"/>
<feBlend mode="normal" in="SourceGraphic" in2="BackgroundImageFix" result="shape"/>
<feColorMatrix in="SourceAlpha" type="matrix" values="0 0 0 0 0 0 0 0 0 0 0 0 0 0 0 0 0 0 127 0" result="hardAlpha"/>
<feOffset dy="5.71429"/>
<feGaussianBlur stdDeviation="26.6429"/>
<feComposite in2="hardAlpha" operator="arithmetic" k2="-1" k3="1"/>
<feColorMatrix type="matrix" values="0 0 0 0 0.270588 0 0 0 0 0.270588 0 0 0 0 0.270588 0 0 0 0.1 0"/>
<feBlend mode="normal" in2="shape" result="effect1_innerShadow_1127_31"/>
</filter>
<filter id="filter1_d_1127_31" x="30.1429" y="33.5717" width="31.1429" height="35.7138" filterUnits="userSpaceOnUse" color-interpolation-filters="sRGB">
<feFlood flood-opacity="0" result="BackgroundImageFix"/>
<feColorMatrix in="SourceAlpha" type="matrix" values="0 0 0 0 0 0 0 0 0 0 0 0 0 0 0 0 0 0 127 0" result="hardAlpha"/>
<feOffset dy="5.71429"/>
<feGaussianBlur stdDeviation="2.85714"/>
<feComposite in2="hardAlpha" operator="out"/>
<feColorMatrix type="matrix" values="0 0 0 0 0 0 0 0 0 0 0 0 0 0 0 0 0 0 0.25 0"/>
<feBlend mode="normal" in2="BackgroundImageFix" result="effect1_dropShadow_1127_31"/>
<feBlend mode="normal" in="SourceGraphic" in2="effect1_dropShadow_1127_31" result="shape"/>
</filter>
<linearGradient id="paint0_linear_1127_31" x1="45.7143" y1="0" x2="45.7143" y2="91.4286" gradientUnits="userSpaceOnUse">
<stop stop-color="#E8E8E8"/>
<stop offset="1" stop-color="#A2A2A2"/>
</linearGradient>
<linearGradient id="paint1_linear_1127_31" x1="45.7143" y1="0" x2="45.7143" y2="91.4286" gradientUnits="userSpaceOnUse">
<stop stop-color="#E5E3E7"/>
<stop offset="1" stop-color="#E5E3E7" stop-opacity="0"/>
</linearGradient>
<linearGradient id="paint2_linear_1127_31" x1="37.1406" y1="45.7143" x2="54.2835" y2="45.7143" gradientUnits="userSpaceOnUse">
<stop stop-color="#D6D9DD"/>
<stop offset="1" stop-color="#A4A7AB"/>
</linearGradient>
</defs>
</svg>
