<svg preserveAspectRatio="none" width="100%" height="100%" overflow="visible" style="display: block;" viewBox="0 0 100.085 23" fill="none" xmlns="http://www.w3.org/2000/svg">
<g id="Group 1000027497">
<path id="Vector" d="M91.0495 22.938C86.9114 22.938 84.2301 19.6678 84.2301 14.4448C84.2301 9.25271 86.9114 5.96699 91.0495 5.96699C93.4053 5.96699 95.2652 7.19138 96.1331 9.00473H96.2261V2.03033C96.2261 0.728438 97.0165 0 98.1479 0C99.2793 0 100.085 0.728438 100.085 2.03033V21.0472C100.085 22.2871 99.2948 22.9845 98.1789 22.9845C97.063 22.9845 96.2261 22.3026 96.2261 21.0472V19.7608H96.1486C95.3582 21.6516 93.5913 22.938 91.0495 22.938ZM92.2119 19.7763C94.6452 19.7763 96.2416 17.715 96.2416 14.4603C96.2416 11.2365 94.6452 9.14422 92.2119 9.14422C89.7322 9.14422 88.1823 11.2055 88.1823 14.4603C88.1823 17.7305 89.7167 19.7763 92.2119 19.7763Z" fill="var(--fill-0, white)"/>
<path id="Vector_2" d="M70.3725 22.9834C69.2411 22.9834 68.4506 22.255 68.4506 20.9531V7.87221C68.4506 6.67881 69.1481 5.91937 70.295 5.91937C71.4264 5.91937 72.2013 6.67881 72.2013 7.87221V9.01911H72.2788C73.1622 7.06628 74.8671 5.93487 77.3934 5.93487C81.02 5.93487 83.0814 8.25967 83.0814 12.0568V20.9531C83.0814 22.255 82.2909 22.9834 81.1595 22.9834C80.0281 22.9834 79.2222 22.255 79.2222 20.9531V12.8318C79.2222 10.507 78.1373 9.20509 75.9365 9.20509C73.7202 9.20509 72.3098 10.8015 72.3098 13.1573V20.9531C72.3098 22.255 71.5039 22.9834 70.3725 22.9834Z" fill="var(--fill-0, white)"/>
<path id="Vector_3" d="M57.7368 22.9679C54.1721 22.9679 51.9093 20.6586 51.9093 16.8614V7.9497C51.9093 6.66331 52.6997 5.91937 53.8311 5.91937C54.9626 5.91937 55.7685 6.66331 55.7685 7.9652V16.0865C55.7685 18.4423 56.9154 19.7132 59.0852 19.7132C61.317 19.7132 62.6964 18.1323 62.6964 15.7455V7.9497C62.6964 6.66331 63.5023 5.91937 64.6337 5.91937C65.7496 5.91937 66.5556 6.66331 66.5556 7.9652V21.0306C66.5556 22.2705 65.8116 22.9834 64.7112 22.9834C63.5953 22.9834 62.8359 22.2705 62.8359 21.0306V19.8217H62.7584C61.8905 21.821 60.2321 22.9679 57.7368 22.9679Z" fill="var(--fill-0, white)"/>
<g id="Group 1000027477">
<path id="Vector_4" d="M22.2832 22.9987C17.4631 22.9987 14.3324 19.7905 14.3324 14.4589C14.3324 9.1584 17.4941 5.90368 22.2832 5.90368C22.2847 5.90368 42.7644 5.90368 42.7659 5.90368C47.5525 5.9057 50.7123 9.14456 50.7123 14.4589C50.7123 19.7888 47.5835 22.9967 42.7659 22.9987C42.7644 22.9987 22.2847 22.9987 22.2832 22.9987ZM22.2832 19.9455C22.2847 19.9455 42.7644 19.9455 42.7659 19.9455C45.2122 19.943 46.7911 17.9595 46.7911 14.4589C46.7911 10.9739 45.2122 8.97486 42.7659 8.97241C42.7644 8.97241 22.2847 8.97241 22.2832 8.97241C19.8499 8.97241 18.2535 10.9717 18.2535 14.4589C18.2535 17.9616 19.8344 19.9455 22.2832 19.9455Z" fill="var(--fill-0, white)"/>
</g>
<path id="Vector_5" d="M6.85041 23C3.37871 23 0.945419 21.6671 0.154987 19.6988C0.046496 19.4198 0 19.1718 0 18.9393C0 18.0094 0.681942 17.4205 1.61186 17.4205C2.24731 17.4205 2.78976 17.715 3.28572 18.3659C4.15364 19.6213 5.14556 20.1792 6.9899 20.1792C8.78775 20.1792 9.98114 19.4198 9.98114 18.1799C9.98114 17.188 9.3612 16.6455 7.67184 16.2581L5.00607 15.6536C1.79785 14.9252 0.216981 13.3443 0.216981 10.9575C0.216981 7.90429 2.85176 5.90496 6.91241 5.90496C10.0741 5.90496 12.5229 7.45483 13.0344 9.34567C13.0809 9.54715 13.1119 9.73313 13.1119 9.91912C13.1119 10.7251 12.6004 11.2985 11.624 11.2985C11.0661 11.2985 10.5081 11.097 10.1516 10.5856C9.3922 9.45416 8.44678 8.74122 6.81942 8.74122C5.13006 8.74122 3.96766 9.56265 3.96766 10.7405C3.96766 11.7015 4.6806 12.3524 6.38545 12.7399L9.00473 13.3133C12.4764 14.1038 13.8558 15.3592 13.8558 17.7924C13.8558 20.9387 11.0351 23 6.85041 23Z" fill="var(--fill-0, white)"/>
</g>
</svg>
