<svg preserveAspectRatio="none" width="100%" height="100%" overflow="visible" style="display: block;" viewBox="0 0 1440 330.952" fill="none" xmlns="http://www.w3.org/2000/svg">
<g id="Group 2085665061">
<path id="Vector" d="M1309.99 330.038C1250.45 330.038 1211.88 282.985 1211.88 207.835C1211.88 133.13 1250.45 85.8545 1309.99 85.8545C1343.89 85.8545 1370.65 103.471 1383.14 129.562H1384.48V29.2128C1384.48 10.4809 1395.85 0 1412.13 0C1428.41 0 1440 10.4809 1440 29.2128V302.832C1440 320.672 1428.63 330.707 1412.57 330.707C1396.52 330.707 1384.48 320.895 1384.48 302.832V284.323H1383.36C1371.99 311.529 1346.57 330.038 1309.99 330.038ZM1326.72 284.546C1361.73 284.546 1384.7 254.888 1384.7 208.058C1384.7 161.674 1361.73 131.569 1326.72 131.569C1291.04 131.569 1268.74 161.228 1268.74 208.058C1268.74 255.111 1290.82 284.546 1326.72 284.546Z" fill="var(--fill-0, white)"/>
<path id="Vector_2" d="M1012.57 330.733C996.295 330.733 984.922 320.252 984.922 301.52V113.309C984.922 96.1379 994.957 85.2109 1011.46 85.2109C1027.74 85.2109 1038.89 96.1379 1038.89 113.309V129.811H1040C1052.71 101.713 1077.24 85.4339 1113.59 85.4339C1165.77 85.4339 1195.43 118.884 1195.43 173.518V301.52C1195.43 320.252 1184.06 330.733 1167.78 330.733C1151.5 330.733 1139.91 320.252 1139.91 301.52V184.668C1139.91 151.219 1124.3 132.487 1092.63 132.487C1060.74 132.487 1040.45 155.456 1040.45 189.351V301.52C1040.45 320.252 1028.85 330.733 1012.57 330.733Z" fill="var(--fill-0, white)"/>
<path id="Vector_3" d="M830.691 330.51C779.402 330.51 746.844 297.283 746.844 242.648V114.424C746.844 95.9149 758.217 85.2109 774.496 85.2109C790.774 85.2109 802.37 95.9149 802.37 114.647V231.498C802.37 265.394 818.872 283.68 850.092 283.68C882.204 283.68 902.051 260.934 902.051 226.592V114.424C902.051 95.9149 913.647 85.2109 929.926 85.2109C945.982 85.2109 957.578 95.9149 957.578 114.647V302.635C957.578 320.475 946.874 330.733 931.041 330.733C914.985 330.733 904.058 320.475 904.058 302.635V285.241H902.943C890.455 314.008 866.594 330.51 830.691 330.51Z" fill="var(--fill-0, white)"/>
<g id="Group 1000027477">
<path id="Vector_4" d="M320.672 330.952C251.319 330.952 206.273 284.791 206.273 208.08C206.273 131.814 251.765 84.9844 320.672 84.9844C320.693 84.9844 615.361 84.9844 615.382 84.9844C684.253 85.0136 729.716 131.615 729.716 208.08C729.716 284.767 684.698 330.923 615.382 330.952C615.361 330.952 320.693 330.952 320.672 330.952ZM320.672 287.021C320.693 287.021 615.361 287.021 615.382 287.021C650.579 286.986 673.297 258.446 673.297 208.08C673.297 157.936 650.579 129.173 615.382 129.138C615.361 129.138 320.693 129.138 320.672 129.138C285.661 129.138 262.692 157.905 262.692 208.08C262.692 258.477 285.438 287.021 320.672 287.021Z" fill="var(--fill-0, white)"/>
</g>
<path id="Vector_5" d="M98.5654 330.952C48.6137 330.952 13.6029 311.774 2.22999 283.453C0.668996 279.439 0 275.871 0 272.526C0 259.146 9.81194 250.672 23.1919 250.672C32.3348 250.672 40.1398 254.909 47.2757 264.275C59.7636 282.338 74.0356 290.366 100.572 290.366C126.44 290.366 143.611 279.439 143.611 261.599C143.611 247.327 134.691 239.522 110.384 233.948L72.0286 225.251C25.8678 214.77 3.12198 192.024 3.12198 157.682C3.12198 113.751 41.0318 84.9844 99.4574 84.9844C144.949 84.9844 180.183 107.284 187.542 134.49C188.211 137.389 188.657 140.065 188.657 142.741C188.657 154.337 181.298 162.588 167.249 162.588C159.221 162.588 151.193 159.689 146.064 152.33C135.137 136.051 121.534 125.793 98.1194 125.793C73.8126 125.793 57.0877 137.612 57.0877 154.56C57.0877 168.386 67.3456 177.752 91.8755 183.327L129.562 191.578C179.514 202.951 199.361 221.014 199.361 256.024C199.361 301.293 158.775 330.952 98.5654 330.952Z" fill="var(--fill-0, white)"/>
</g>
</svg>
