<svg preserveAspectRatio="none" width="100%" height="100%" overflow="visible" style="display: block;" viewBox="0 0 2798.62 1317.76" fill="none" xmlns="http://www.w3.org/2000/svg">
<g id="Group 2085665060">
<path id="Vector" d="M2404.83 556.518C2370.05 308.605 2021.03 151.216 1758.81 154.382C1456.63 158.061 1342.75 374.102 1112.79 308.391C902.938 248.499 890.574 37.8476 736.298 4.64996C594.515 -25.8525 370.162 101.505 0.431296 731.918" stroke="url(#paint0_linear_1127_114)" stroke-dasharray="2.4 2.4"/>
<path id="Vector_2" d="M18.0563 759.853C383.294 138.552 607.776 6.27484 751.57 31.1303C858.142 49.697 899.214 151.985 982.598 231.942C1024.22 273.1 1075.4 303.28 1131.57 319.77C1315.53 373.93 1425.19 254.059 1621.78 202.637C1671.88 189.379 1723.38 182.056 1775.19 180.819C2038.48 173.675 2383.61 310.102 2423.78 548.988" stroke="url(#paint1_linear_1127_114)" stroke-dasharray="2.4 2.4"/>
<path id="Vector_3" d="M35.7282 787.692C396.474 175.546 620.956 38.3914 766.461 57.6426C873.418 71.803 916.929 169.214 1000.48 245.107C1043.1 284.785 1094.21 314.21 1149.92 331.138C1331.24 386.197 1440.85 278.219 1638.12 229.192C1688.25 216.628 1739.55 209.287 1791.2 207.289C2055.6 196.979 2396.79 311.588 2442.35 541.447" stroke="url(#paint2_linear_1127_114)" stroke-dasharray="2.4 2.4"/>
<path id="Vector_4" d="M53.361 815.456C409.529 212.593 634.14 70.6047 781.527 84.1234C888.955 93.9629 934.733 186.412 1018.59 258.283C1062.11 296.457 1113.1 325.145 1168.33 342.518C1347.16 398.474 1456.34 302.347 1654.51 255.759C1704.69 243.775 1755.86 236.372 1807.38 233.641C2072.84 219.695 2410.1 312.956 2461.06 533.789" stroke="url(#paint3_linear_1127_114)" stroke-dasharray="2.4 2.4"/>
<path id="Vector_5" d="M70.9782 843.448C422.654 249.612 647.222 102.875 796.62 110.661C904.39 116.222 952.649 203.708 1036.76 271.43C1081.22 308.12 1132.19 336.102 1187.01 353.911C1363.37 410.766 1472.25 326.531 1671.4 282.339C1721.53 271.055 1772.45 263.646 1823.71 260.179C2090.29 242.596 2423.61 314.553 2480 526.359" stroke="url(#paint4_linear_1127_114)" stroke-dasharray="2.4 2.4"/>
<path id="Vector_6" d="M88.4391 871.338C435.751 286.614 660.447 130.979 811.728 137.139C919.712 141.417 970.581 220.689 1054.86 284.603C1100.23 319.744 1151.18 347.018 1205.59 365.287C1379.46 423.041 1487.95 350.699 1687.79 308.945C1737.9 298.248 1788.65 290.789 1839.72 286.614C2107.41 265.224 2436.8 316.004 2498.57 518.826" stroke="url(#paint5_linear_1127_114)" stroke-dasharray="2.4 2.4"/>
<path id="Vector_7" d="M106.267 899.227C448.873 323.658 673.398 167.68 826.775 163.402C935.101 160.921 988.58 237.926 1072.99 297.818C1119.23 331.397 1170.16 357.978 1224.14 376.706C1395.53 435.358 1503.77 374.866 1704.34 335.551C1754.43 325.492 1805.01 318.009 1855.88 313.134C2124.68 288.107 2450.13 317.412 2517.3 511.336" stroke="url(#paint6_linear_1127_114)" stroke-dasharray="2.4 2.4"/>
<path id="Vector_8" d="M123.9 927.119C461.885 360.662 686.453 199.85 841.884 190.139C950.467 183.209 1006.68 254.78 1091.14 310.951C1138.2 342.936 1189.13 368.812 1242.72 387.956C1411.58 447.549 1519.57 398.993 1720.9 361.988C1767.75 353.432 1817.76 345.218 1872.05 339.443C2142.01 310.652 2463.49 318.951 2536.05 503.763" stroke="url(#paint7_linear_1127_114)" stroke-dasharray="2.4 2.4"/>
<path id="Vector_9" d="M141.525 955.019C475.104 397.718 699.5 232.5 856.942 216.543C965.824 205.548 1024.82 271.687 1109.36 324.05C1157.25 354.423 1208.22 379.647 1261.41 399.301C1427.79 459.792 1535.44 423.044 1737.59 388.563C1784.65 380.52 1834.53 372.392 1888.4 365.889C2159.13 333.376 2476.83 320.456 2554.78 496.199" stroke="url(#paint8_linear_1127_114)" stroke-dasharray="2.4 2.4"/>
<path id="Vector_10" d="M159.197 982.87C488.241 434.724 712.552 265.056 872.046 243.153C981.186 228.137 1043.18 288.671 1127.38 337.27C1176.03 366.014 1227.02 390.6 1279.81 410.767C1443.76 472.157 1551.1 447.301 1754.02 415.045C1801.08 407.516 1851.01 399.387 1904.44 392.2C2176.58 355.751 2490.18 321.698 2573.52 488.456" stroke="url(#paint9_linear_1127_114)" stroke-dasharray="2.4 2.4"/>
<path id="Vector_11" d="M176.83 1010.75C501.338 471.718 725.607 297.687 887.027 269.623C996.423 250.629 1061.24 305.473 1145.44 350.478C1194.84 377.531 1245.9 401.463 1298.3 422.136C1459.72 484.424 1566.76 471.419 1770.49 441.815C1817.77 434.884 1867.57 426.713 1920.53 418.884C2193.79 378.5 2503.41 323.398 2592.23 481.13" stroke="url(#paint10_linear_1127_114)" stroke-dasharray="2.4 2.4"/>
<path id="Vector_12" d="M194.447 1038.65C514.463 508.77 738.732 330.333 902.205 296.109C1011.9 273.178 1079.58 322.247 1163.61 363.659C1211.91 387.445 1261.37 411.445 1316.94 433.519C1475.88 496.663 1582.63 495.594 1787.13 468.386C1834.53 462.011 1884.25 453.797 1936.87 445.327C2211.24 401.006 2516.92 324.857 2611.08 473.605" stroke="url(#paint11_linear_1127_114)" stroke-dasharray="2.4 2.4"/>
<path id="Vector_13" d="M212.072 1066.54C527.596 545.947 751.565 363.061 917.263 322.633C1027.26 295.724 1097.94 338.932 1181.75 376.836C1231.2 399.21 1280.79 422.526 1335.51 444.9C1491.97 509.07 1598.37 519.723 1803.68 494.953C1851.22 489.178 1900.89 480.921 1952.95 471.766C2228.39 423.424 2530.18 326.312 2629.74 466.076" stroke="url(#paint12_linear_1127_114)" stroke-dasharray="2.4 2.4"/>
<path id="Vector_14" d="M229.611 1094.44C540.686 582.827 764.869 395.833 932.321 349.16C1042.62 318.401 1116.29 355.577 1199.89 390.058C1250.54 410.935 1300.21 433.609 1353.9 456.325C1507.92 521.266 1613.94 543.94 1820.24 521.608C1867.94 516.346 1917.48 508.047 1969.12 498.293C2245.67 445.844 2543.53 327.77 2648.47 458.55" stroke="url(#paint13_linear_1127_114)" stroke-dasharray="2.4 2.4"/>
<path id="Vector_15" d="M247.369 1122.3C553.823 619.838 777.877 428.695 947.426 375.647C1058.06 340.995 1134.69 372.096 1217.99 403.198C1269.84 422.535 1319.68 444.652 1372.65 467.668C1524.1 533.507 1629.9 568.031 1836.8 548.138C1886.68 542.821 1936.26 534.953 1985.34 524.566C2262.92 468.224 2557.01 329.316 2667.22 450.984" stroke="url(#paint14_linear_1127_114)" stroke-dasharray="2.4 2.4"/>
<path id="Vector_16" d="M265.002 1150.18C566.964 656.879 791.232 461.415 962.364 402.121C1073.34 363.619 1152.96 388.56 1236.17 416.367C1289.23 434.121 1339.15 455.683 1391.22 479.041C1540.23 545.778 1645.69 592.195 1853.28 574.698C1903.12 570.028 1952.6 562.154 2001.43 551.126C2280.16 490.335 2570.23 330.764 2686 443.276" stroke="url(#paint15_linear_1127_114)" stroke-dasharray="2.4 2.4"/>
<path id="Vector_17" d="M282.634 1178.07C580.061 693.878 804.586 494.436 977.601 428.596C1088.84 386.329 1171.49 404.939 1254.28 429.495C1308.53 445.623 1358.54 466.757 1409.75 490.414C1556.24 558.05 1661.44 616.317 1869.92 601.258C1919.72 597.18 1969.12 589.257 2017.7 577.558C2297.37 512.746 2583.59 332.255 2704.75 435.912" stroke="url(#paint16_linear_1127_114)" stroke-dasharray="2.4 2.4"/>
<path id="Vector_18" d="M300.291 1205.97C593.183 731.106 817.579 527.342 992.647 455.129C1104.35 409.011 1189.88 421.247 1272.36 442.68C1327.98 457.097 1377.95 477.803 1428.31 501.802C1572.31 570.251 1677.17 640.497 1886.47 627.876C1936.21 624.364 1985.54 616.389 2033.86 604.048C2314.56 535 2596.92 333.718 2723.47 428.391" stroke="url(#paint17_linear_1127_114)" stroke-dasharray="2.4 2.4"/>
<path id="Vector_19" d="M317.916 1233.86C606.102 767.937 830.841 560.324 1007.75 481.779C1119.84 431.897 1208.23 437.672 1290.5 456.11C1347.19 468.944 1397.46 489.137 1446.87 513.436C1588.4 582.869 1692.96 664.922 1903.02 654.612C1952.71 651.665 2001.97 643.637 2050.03 630.655C2331.75 557.329 2610.48 335.469 2742.21 421.03" stroke="url(#paint18_linear_1127_114)" stroke-dasharray="2.4 2.4"/>
<path id="Vector_20" d="M335.556 1261.76C619.421 804.991 844.16 593.313 1022.82 508.137C1135.38 454.448 1226.6 453.678 1308.65 469.036C1366.54 479.902 1416.85 499.966 1465.45 524.65C1604.46 594.982 1708.72 688.885 1919.59 681.099C1969.23 678.739 2018.43 670.657 2066.21 657.013C2348.92 579.281 2623.63 336.673 2760.96 413.336" stroke="url(#paint19_linear_1127_114)" stroke-dasharray="2.4 2.4"/>
<path id="Vector_21" d="M353.22 1289.6C632.55 841.989 857.46 626.503 1037.75 534.611C1150.74 477.2 1244.73 469.799 1326.58 482.205C1385.66 491.146 1436.1 510.996 1483.8 535.894C1620.37 607.167 1724.33 712.963 1935.98 707.573C1985.57 705.757 2034.72 697.62 2082.25 683.359C2365.73 600.878 2636.8 338.163 2779.61 405.756" stroke="url(#paint20_linear_1127_114)" stroke-dasharray="2.4 2.4"/>
<path id="Vector_22" d="M370.798 1317.5C816.768 605.845 1131.99 470.573 1344.88 495.386C1577.28 522.466 1665.97 738.122 1952.7 734.186C2289.06 729.523 2625.2 329.697 2798.43 398.231" stroke="url(#paint21_linear_1127_114)" stroke-dasharray="2.4 2.4"/>
</g>
<defs>
<linearGradient id="paint0_linear_1127_114" x1="372.931" y1="366.209" x2="2404.83" y2="366.209" gradientUnits="userSpaceOnUse">
<stop stop-color="#454545"/>
<stop offset="1" stop-color="#454545" stop-opacity="0"/>
</linearGradient>
<linearGradient id="paint1_linear_1127_114" x1="390.762" y1="394.091" x2="2423.78" y2="394.091" gradientUnits="userSpaceOnUse">
<stop stop-color="#454545"/>
<stop offset="1" stop-color="#454545" stop-opacity="0"/>
</linearGradient>
<linearGradient id="paint2_linear_1127_114" x1="408.573" y1="421.813" x2="2442.35" y2="421.813" gradientUnits="userSpaceOnUse">
<stop stop-color="#454545"/>
<stop offset="1" stop-color="#454545" stop-opacity="0"/>
</linearGradient>
<linearGradient id="paint3_linear_1127_114" x1="426.371" y1="449.361" x2="2461.06" y2="449.361" gradientUnits="userSpaceOnUse">
<stop stop-color="#454545"/>
<stop offset="1" stop-color="#454545" stop-opacity="0"/>
</linearGradient>
<linearGradient id="paint4_linear_1127_114" x1="444.194" y1="476.909" x2="2480" y2="476.909" gradientUnits="userSpaceOnUse">
<stop stop-color="#454545"/>
<stop offset="1" stop-color="#454545" stop-opacity="0"/>
</linearGradient>
<linearGradient id="paint5_linear_1127_114" x1="461.827" y1="504.151" x2="2498.57" y2="504.151" gradientUnits="userSpaceOnUse">
<stop stop-color="#454545"/>
<stop offset="1" stop-color="#454545" stop-opacity="0"/>
</linearGradient>
<linearGradient id="paint6_linear_1127_114" x1="479.795" y1="531.285" x2="2517.3" y2="531.285" gradientUnits="userSpaceOnUse">
<stop stop-color="#454545"/>
<stop offset="1" stop-color="#454545" stop-opacity="0"/>
</linearGradient>
<linearGradient id="paint7_linear_1127_114" x1="497.6" y1="558.395" x2="2536.05" y2="558.395" gradientUnits="userSpaceOnUse">
<stop stop-color="#454545"/>
<stop offset="1" stop-color="#454545" stop-opacity="0"/>
</linearGradient>
<linearGradient id="paint8_linear_1127_114" x1="515.397" y1="585.176" x2="2554.78" y2="585.176" gradientUnits="userSpaceOnUse">
<stop stop-color="#454545"/>
<stop offset="1" stop-color="#454545" stop-opacity="0"/>
</linearGradient>
<linearGradient id="paint9_linear_1127_114" x1="533.235" y1="611.845" x2="2573.52" y2="611.845" gradientUnits="userSpaceOnUse">
<stop stop-color="#454545"/>
<stop offset="1" stop-color="#454545" stop-opacity="0"/>
</linearGradient>
<linearGradient id="paint10_linear_1127_114" x1="551.033" y1="638.255" x2="2592.23" y2="638.255" gradientUnits="userSpaceOnUse">
<stop stop-color="#454545"/>
<stop offset="1" stop-color="#454545" stop-opacity="0"/>
</linearGradient>
<linearGradient id="paint11_linear_1127_114" x1="568.842" y1="664.454" x2="2611.08" y2="664.454" gradientUnits="userSpaceOnUse">
<stop stop-color="#454545"/>
<stop offset="1" stop-color="#454545" stop-opacity="0"/>
</linearGradient>
<linearGradient id="paint12_linear_1127_114" x1="586.627" y1="690.397" x2="2629.74" y2="690.397" gradientUnits="userSpaceOnUse">
<stop stop-color="#454545"/>
<stop offset="1" stop-color="#454545" stop-opacity="0"/>
</linearGradient>
<linearGradient id="paint13_linear_1127_114" x1="604.351" y1="716.071" x2="2648.47" y2="716.071" gradientUnits="userSpaceOnUse">
<stop stop-color="#454545"/>
<stop offset="1" stop-color="#454545" stop-opacity="0"/>
</linearGradient>
<linearGradient id="paint14_linear_1127_114" x1="622.261" y1="741.356" x2="2667.22" y2="741.356" gradientUnits="userSpaceOnUse">
<stop stop-color="#454545"/>
<stop offset="1" stop-color="#454545" stop-opacity="0"/>
</linearGradient>
<linearGradient id="paint15_linear_1127_114" x1="640.073" y1="766.276" x2="2686" y2="766.276" gradientUnits="userSpaceOnUse">
<stop stop-color="#454545"/>
<stop offset="1" stop-color="#454545" stop-opacity="0"/>
</linearGradient>
<linearGradient id="paint16_linear_1127_114" x1="657.878" y1="790.77" x2="2704.75" y2="790.77" gradientUnits="userSpaceOnUse">
<stop stop-color="#454545"/>
<stop offset="1" stop-color="#454545" stop-opacity="0"/>
</linearGradient>
<linearGradient id="paint17_linear_1127_114" x1="675.7" y1="804.746" x2="2723.47" y2="804.746" gradientUnits="userSpaceOnUse">
<stop stop-color="#454545"/>
<stop offset="1" stop-color="#454545" stop-opacity="0"/>
</linearGradient>
<linearGradient id="paint18_linear_1127_114" x1="693.498" y1="817.779" x2="2742.21" y2="817.779" gradientUnits="userSpaceOnUse">
<stop stop-color="#454545"/>
<stop offset="1" stop-color="#454545" stop-opacity="0"/>
</linearGradient>
<linearGradient id="paint19_linear_1127_114" x1="711.311" y1="830.155" x2="2760.96" y2="830.155" gradientUnits="userSpaceOnUse">
<stop stop-color="#454545"/>
<stop offset="1" stop-color="#454545" stop-opacity="0"/>
</linearGradient>
<linearGradient id="paint20_linear_1127_114" x1="729.127" y1="842.179" x2="2779.61" y2="842.179" gradientUnits="userSpaceOnUse">
<stop stop-color="#454545"/>
<stop offset="1" stop-color="#454545" stop-opacity="0"/>
</linearGradient>
<linearGradient id="paint21_linear_1127_114" x1="746.897" y1="853.915" x2="2798.43" y2="853.915" gradientUnits="userSpaceOnUse">
<stop stop-color="#454545"/>
<stop offset="1" stop-color="#454545" stop-opacity="0"/>
</linearGradient>
</defs>
</svg>
