<svg preserveAspectRatio="none" width="100%" height="100%" overflow="visible" style="display: block;" viewBox="0 0 89 17" fill="none" xmlns="http://www.w3.org/2000/svg">
<g id="Frame 2147238660">
<g id="Group 2085665049">
<path id="Vector" d="M7.13976 4.36961C4.84659 6.12336 3.7 7.00024 3.7 8.5C3.7 9.99977 4.84659 10.8766 7.13976 12.6304C7.77281 13.1145 8.40067 13.5703 8.97763 13.9502C9.4838 14.2834 10.057 14.6281 10.6505 14.9664C12.9383 16.2707 14.0822 16.9228 15.1082 16.2008C16.1341 15.4788 16.2274 13.9673 16.4139 10.9443C16.4666 10.0894 16.5 9.25132 16.5 8.5C16.5 7.74868 16.4666 6.9106 16.4139 6.0557C16.2274 3.03271 16.1341 1.52122 15.1082 0.799198C14.0822 0.0771789 12.9383 0.729313 10.6505 2.03358C10.057 2.37193 9.4838 2.71662 8.97763 3.04984C8.40067 3.42966 7.77281 3.88548 7.13976 4.36961Z" fill="url(#paint0_linear_1127_36)" stroke="var(--stroke-0, #686B6F)"/>
<path id="Vector_2" d="M0.5 2.89844V14.8984" stroke="var(--stroke-0, #686B6F)" stroke-linecap="round"/>
</g>
<path id="Vector_3" d="M36.5 8.5C36.5 4.72876 36.5 2.84315 37.6716 1.67157C38.8431 0.5 40.7288 0.5 44.5 0.5C48.2712 0.5 50.1569 0.5 51.3284 1.67157C52.5 2.84315 52.5 4.72876 52.5 8.5C52.5 12.2712 52.5 14.1569 51.3284 15.3284C50.1569 16.5 48.2712 16.5 44.5 16.5C40.7288 16.5 38.8431 16.5 37.6716 15.3284C36.5 14.1569 36.5 12.2712 36.5 8.5Z" fill="url(#paint1_linear_1127_36)" stroke="var(--stroke-0, #686B6F)"/>
<g id="Group 2085665048">
<path id="Vector_4" d="M81.8602 4.36961C84.1534 6.12336 85.3 7.00024 85.3 8.5C85.3 9.99977 84.1534 10.8766 81.8602 12.6304C81.2272 13.1145 80.5993 13.5703 80.0224 13.9502C79.5162 14.2834 78.943 14.6281 78.3495 14.9664C76.0617 16.2707 74.9178 16.9228 73.8918 16.2008C72.8659 15.4788 72.7726 13.9673 72.5861 10.9443C72.5334 10.0894 72.5 9.25132 72.5 8.5C72.5 7.74868 72.5334 6.9106 72.5861 6.0557C72.7726 3.03271 72.8659 1.52122 73.8918 0.799198C74.9178 0.0771789 76.0617 0.729313 78.3495 2.03358C78.943 2.37193 79.5162 2.71662 80.0224 3.04984C80.5993 3.42966 81.2272 3.88548 81.8602 4.36961Z" fill="url(#paint2_linear_1127_36)" stroke="var(--stroke-0, #686B6F)"/>
<path id="Vector_5" d="M88.5 2.89844V14.8984" stroke="var(--stroke-0, #686B6F)" stroke-linecap="round"/>
</g>
</g>
<defs>
<linearGradient id="paint0_linear_1127_36" x1="16.1016" y1="8.5" x2="4.10156" y2="8.5" gradientUnits="userSpaceOnUse">
<stop stop-color="#D6D9DD"/>
<stop offset="1" stop-color="#A4A7AB"/>
</linearGradient>
<linearGradient id="paint1_linear_1127_36" x1="36.998" y1="8.5" x2="51.998" y2="8.5" gradientUnits="userSpaceOnUse">
<stop stop-color="#D6D9DD"/>
<stop offset="1" stop-color="#A4A7AB"/>
</linearGradient>
<linearGradient id="paint2_linear_1127_36" x1="72.8984" y1="8.5" x2="84.8984" y2="8.5" gradientUnits="userSpaceOnUse">
<stop stop-color="#D6D9DD"/>
<stop offset="1" stop-color="#A4A7AB"/>
</linearGradient>
</defs>
</svg>
